<svg xmlns="http://www.w3.org/2000/svg" fill-rule="evenodd" stroke-miterlimit="1.414" viewBox="0 0 378 369" clip-rule="evenodd" stroke-linejoin="round"><path fill="#181717" d="M188.713 0C84.503 0 0 84.484 0 188.713c0 83.374 54.072 154.112 129.053 179.065 9.43 1.747 12.894-4.094 12.894-9.078 0-4.5-.175-19.366-.256-35.134C89.19 334.98 78.12 301.3 78.12 301.3c-8.585-21.81-20.954-27.613-20.954-27.613-17.122-11.712 1.29-11.47 1.29-11.47 18.95 1.33 28.93 19.45 28.93 19.45 16.83 28.845 44.146 20.505 54.915 15.683 1.7-12.194 6.59-20.522 11.98-25.234-41.91-4.77-85.97-20.954-85.97-93.263 0-20.6 7.374-37.437 19.446-50.653-1.96-4.753-8.417-23.947 1.83-49.94 0 0 15.847-5.07 51.91 19.346 15.05-4.18 31.196-6.278 47.234-6.353 16.036.075 32.192 2.172 47.273 6.353 36.02-24.416 51.84-19.346 51.84-19.346 10.274 25.993 3.81 45.187 1.85 49.94 12.1 13.216 19.424 30.053 19.424 50.653 0 72.484-44.147 88.44-86.17 93.113 6.77 5.856 12.8 17.34 12.8 34.946 0 25.25-.217 45.572-.217 51.788 0 5.022 3.394 10.906 12.96 9.053 74.94-24.98 128.944-95.69 128.944-179.04C377.422 84.483 292.932 0 188.712 0z"/><path fill="#181717" fill-rule="nonzero" d="M71.475 270.947c-.416.94-1.89 1.222-3.234.578-1.36-.62-2.13-1.897-1.69-2.838.41-.962 1.89-1.23 3.25-.587 1.37.616 2.16 1.906 1.68 2.847zm7.645 8.528c-.9.83-2.66.444-3.854-.875-1.235-1.316-1.466-3.075-.554-3.922.93-.83 2.635-.44 3.872.875 1.235 1.33 1.475 3.075.535 3.922zm7.44 10.865c-1.157.807-3.048.054-4.216-1.624-1.157-1.68-1.157-3.694.025-4.5 1.17-.807 3.03-.08 4.21 1.584 1.15 1.706 1.15 3.72-.03 4.54zm10.193 10.5c-1.034 1.14-3.237.835-4.85-.72-1.65-1.523-2.11-3.683-1.072-4.823 1.05-1.144 3.27-.822 4.89.722 1.64 1.51 2.14 3.69 1.04 4.82zm14.063 6.097c-.457 1.48-2.58 2.15-4.716 1.522-2.134-.65-3.53-2.38-3.1-3.88.444-1.49 2.575-2.19 4.728-1.52 2.13.642 3.53 2.36 3.088 3.863zm15.444 1.133c.052 1.555-1.76 2.846-4.004 2.874-2.256.05-4.08-1.21-4.106-2.74 0-1.573 1.772-2.85 4.028-2.888 2.244-.044 4.08 1.206 4.08 2.753zm14.37-2.448c.27 1.52-1.29 3.078-3.518 3.494-2.19.4-4.218-.538-4.496-2.044-.272-1.556 1.315-3.116 3.503-3.52 2.23-.386 4.22.526 4.51 2.07z"/></svg>