<?xml version="1.0" standalone="no"?>
<!DOCTYPE svg PUBLIC "-//W3C//DTD SVG 20010904//EN"
 "http://www.w3.org/TR/2001/REC-SVG-20010904/DTD/svg10.dtd">
<svg version="1.0" xmlns="http://www.w3.org/2000/svg"
 width="1332.000000pt" height="1332.000000pt" viewBox="0 0 1332.000000 1332.000000"
 preserveAspectRatio="xMidYMid meet">
<metadata>
Created by potrace 1.11, written by Peter Selinger 2001-2013
</metadata>
<g transform="translate(0.000000,1332.000000) scale(0.100000,-0.100000)"
fill="#000000" stroke="none">
<path d="M0 6660 l0 -6660 2074 0 c2065 0 2074 0 2079 20 9 34 44 23 38 -12 0
-5 1563 -8 3474 -8 3439 0 3476 0 3465 19 -14 27 6 70 36 77 47 12 86 -35 64
-76 l-11 -20 1037 0 c976 0 1038 1 1050 18 11 14 13 1152 14 6660 l0 6642
-6660 0 -6660 0 0 -6660z m1702 6344 c15 -31 -13 -74 -47 -74 -31 0 -59 40
-50 70 14 43 78 45 97 4z m1098 -234 c0 -15 -7 -20 -25 -20 -18 0 -25 5 -25
20 0 15 7 20 25 20 18 0 25 -5 25 -20z m3930 -345 c0 -8 -7 -15 -15 -15 -8 0
-15 7 -15 15 0 8 7 15 15 15 8 0 15 -7 15 -15z m-3435 -75 c24 -27 13 -68 -22
-76 -34 -9 -57 6 -61 40 -6 53 47 76 83 36z m3363 -186 c28 -19 29 -67 2 -94
-24 -24 -48 -25 -78 -4 -45 31 -18 114 38 114 9 0 26 -7 38 -16z m2650 -122
c2 -7 -3 -12 -12 -12 -9 0 -16 7 -16 16 0 17 22 14 28 -4z m1727 -152 c0 -18
-6 -26 -23 -28 -24 -4 -38 18 -28 44 3 9 15 14 28 12 17 -2 23 -10 23 -28z
m-10835 -14 c0 -3 -4 -8 -10 -11 -5 -3 -10 -1 -10 4 0 6 5 11 10 11 6 0 10 -2
10 -4z m7270 -36 c0 -5 -4 -10 -10 -10 -5 0 -10 5 -10 10 0 6 5 10 10 10 6 0
10 -4 10 -10z m-16 -156 c8 -21 -11 -44 -35 -44 -19 0 -35 33 -24 50 10 16 52
12 59 -6z m-6514 -80 c0 -8 -7 -14 -15 -14 -15 0 -21 21 -9 33 10 9 24 -2 24
-19z m4475 -37 c26 -20 13 -67 -18 -67 -44 0 -64 49 -29 69 22 14 25 13 47 -2z
m-697 -329 c16 -16 15 -53 -2 -67 -8 -7 -27 -11 -43 -9 -51 6 -41 88 11 88 12
0 27 -5 34 -12z m3497 -49 c0 -7 -8 -15 -17 -17 -18 -3 -25 18 -11 32 10 10
28 1 28 -15z m-1372 -54 c7 -17 -8 -29 -28 -21 -17 6 -9 36 10 36 7 0 15 -7
18 -15z m-3888 -20 c0 -22 -31 -33 -47 -17 -17 17 -1 44 24 40 15 -2 23 -10
23 -23z m-962 -82 c9 -20 7 -27 -10 -45 -28 -28 -70 -18 -79 19 -14 55 65 79
89 26z m5231 -1458 c320 -676 852 -1800 1182 -2497 329 -697 602 -1264 605
-1260 6 6 29 77 138 428 23 72 41 144 41 159 0 16 6 36 13 44 8 9 57 158 110
331 203 666 1199 3918 1218 3978 l21 62 748 0 748 0 -20 -67 c-19 -63 -1483
-4769 -1903 -6118 -101 -324 -319 -1024 -484 -1555 -381 -1226 -366 -1181
-375 -1152 -4 12 -11 20 -16 17 -5 -3 -8 3 -8 12 1 15 -2295 4848 -2624 5523
-95 196 -100 204 -113 180 -7 -14 -587 -1242 -1288 -2730 -1388 -2945 -1419
-3010 -1427 -3010 -3 0 -250 784 -549 1743 -1204 3855 -2231 7149 -2231 7153
0 2 337 4 749 4 l749 0 15 -47 c66 -219 1519 -4941 1523 -4953 8 -21 48 60
507 1030 219 465 739 1563 1155 2440 415 877 771 1628 790 1669 l34 75 55
-115 c30 -63 317 -667 637 -1344z m364 1268 c-2 -10 -10 -18 -18 -18 -8 0 -16
8 -18 18 -2 12 3 17 18 17 15 0 20 -5 18 -17z m1282 -3 c0 -5 -4 -10 -10 -10
-5 0 -10 5 -10 10 0 6 5 10 10 10 6 0 10 -4 10 -10z m1594 -86 c3 -8 1 -24 -5
-35 -20 -38 -81 -5 -66 35 8 21 63 22 71 0z m-7709 -79 c0 -30 -39 -27 -43 3
-3 20 0 23 20 20 15 -2 23 -10 23 -23z m2053 -37 c-4 -27 -33 -36 -42 -13 -8
22 1 35 25 35 15 0 20 -6 17 -22z m3230 -311 c2 -12 -3 -17 -17 -17 -15 0 -21
6 -21 21 0 25 33 22 38 -4z m3951 -153 c12 -15 21 -32 21 -39 0 -25 -41 -65
-68 -65 -33 0 -72 36 -72 67 0 59 82 84 119 37z m921 -134 c0 -5 -4 -10 -10
-10 -5 0 -10 5 -10 10 0 6 5 10 10 10 6 0 10 -4 10 -10z m-1035 -191 c10 -15
-1 -23 -20 -15 -9 3 -13 10 -10 16 8 13 22 13 30 -1z m-7145 -415 c0 -8 -7
-14 -15 -14 -15 0 -21 21 -9 33 10 9 24 -2 24 -19z m7318 -80 c12 -8 22 -26
22 -38 0 -54 -77 -64 -95 -12 -8 24 -6 31 14 47 28 23 31 23 59 3z m-10648
-374 c0 -5 -5 -10 -11 -10 -5 0 -7 5 -4 10 3 6 8 10 11 10 2 0 4 -4 4 -10z
m3580 -134 c0 -3 -4 -8 -10 -11 -5 -3 -10 -1 -10 4 0 6 5 11 10 11 6 0 10 -2
10 -4z m-3372 -359 c2 -12 -3 -17 -17 -17 -12 0 -21 6 -21 13 0 31 32 34 38 4z
m17 -417 c0 -18 -6 -26 -23 -28 -24 -4 -38 18 -28 44 3 9 15 14 28 12 17 -2
23 -10 23 -28z m-451 -1186 c10 -4 16 -18 16 -36 0 -26 -3 -29 -27 -26 -21 2
-29 9 -31 27 -2 13 2 28 10 32 16 11 13 10 32 3z m7646 -163 c0 -27 -19 -36
-37 -18 -18 18 -9 37 18 37 12 0 19 -7 19 -19z m3510 -136 c0 -8 -4 -15 -10
-15 -5 0 -10 7 -10 15 0 8 5 15 10 15 6 0 10 -7 10 -15z m-5100 -455 c0 -5 -4
-10 -10 -10 -5 0 -10 5 -10 10 0 6 5 10 10 10 6 0 10 -4 10 -10z m-3152 -82
c39 -39 -17 -100 -58 -63 -24 22 -25 38 -4 59 18 19 45 21 62 4z m-2233 -368
c0 -18 -6 -26 -23 -28 -13 -2 -25 3 -28 12 -10 26 4 48 28 44 17 -2 23 -10 23
-28z m10855 -110 c0 -23 -13 -32 -34 -24 -19 7 -21 25 -5 41 16 16 39 5 39
-17z m-2179 -440 c27 -15 26 -75 -2 -90 -26 -15 -78 4 -80 29 -5 62 31 88 82
61z m2177 -351 c-2 -6 -8 -10 -13 -10 -5 0 -11 4 -13 10 -2 6 4 11 13 11 9 0
15 -5 13 -11z m-5144 -75 c22 -8 21 -63 0 -71 -39 -15 -71 40 -38 64 21 15 18
15 38 7z m-5900 -60 c10 -4 16 -18 16 -35 0 -25 -4 -29 -29 -29 -38 0 -53 36
-25 57 21 15 18 15 38 7z m4726 -334 c42 -42 14 -110 -46 -110 -61 0 -86 71
-38 109 33 26 58 27 84 1z m-6070 -679 c0 -22 -21 -33 -40 -21 -18 11 -4 40
20 40 13 0 20 -7 20 -19z m7398 -483 c7 -7 12 -21 12 -33 0 -12 -5 -26 -12
-33 -7 -7 -21 -12 -33 -12 -12 0 -26 5 -33 12 -7 7 -12 21 -12 33 0 12 5 26
12 33 7 7 21 12 33 12 12 0 26 -5 33 -12z m-6424 -164 c7 -19 -10 -44 -31 -44
-17 0 -27 24 -19 45 7 20 42 19 50 -1z m-1074 -49 c0 -8 -7 -15 -15 -15 -8 0
-15 7 -15 15 0 8 7 15 15 15 8 0 15 -7 15 -15z m2360 -410 c6 -8 9 -23 5 -35
-5 -17 -13 -20 -38 -18 -32 3 -45 23 -33 54 7 18 50 18 66 -1z m-1450 -35 c0
-5 -4 -10 -10 -10 -5 0 -10 5 -10 10 0 6 5 10 10 10 6 0 10 -4 10 -10z m4264
-203 c29 -21 17 -61 -18 -65 -43 -5 -61 32 -30 62 19 19 25 20 48 3z m-5304
-12 c0 -8 -7 -15 -15 -15 -8 0 -15 7 -15 15 0 8 7 15 15 15 8 0 15 -7 15 -15z
m9700 -175 c0 -5 -4 -10 -10 -10 -5 0 -10 5 -10 10 0 6 5 10 10 10 6 0 10 -4
10 -10z m1664 -182 c20 -29 20 -47 -1 -70 -33 -36 -93 -13 -93 37 0 52 65 74
94 33z m-4716 -356 c3 -16 -2 -22 -17 -22 -24 0 -35 15 -27 36 9 23 40 13 44
-14z m-5835 -173 c42 -23 49 -57 17 -89 -34 -34 -80 -20 -95 27 -4 17 1 29 19
48 29 29 30 29 59 14z m10175 -662 c3 -26 1 -28 -25 -25 -31 3 -44 35 -21 49
23 15 43 5 46 -24z m-8528 3 c0 -5 -4 -10 -10 -10 -5 0 -10 5 -10 10 0 6 5 10
10 10 6 0 10 -4 10 -10z m5250 -40 c0 -5 -4 -10 -10 -10 -5 0 -10 5 -10 10 0
6 5 10 10 10 6 0 10 -4 10 -10z m-230 -349 c0 -26 -17 -36 -35 -21 -18 15 -8
40 16 40 12 0 19 -7 19 -19z m2140 0 c0 -11 -4 -22 -8 -25 -14 -9 -35 12 -29
28 9 23 37 20 37 -3z"/>
</g>
</svg>
